<?xml version="1.0" encoding="utf-8"?>
<!-- Generator: Adobe Illustrator 15.0.2, SVG Export Plug-In . SVG Version: 6.00 Build 0)  -->
<!DOCTYPE svg PUBLIC "-//W3C//DTD SVG 1.1//EN" "http://www.w3.org/Graphics/SVG/1.1/DTD/svg11.dtd">
<svg version="1.1" id="Layer_1" xmlns="http://www.w3.org/2000/svg" xmlns:xlink="http://www.w3.org/1999/xlink" x="0px" y="0px"
	 width="16px" height="16px" viewBox="0 0 16 16" enable-background="new 0 0 16 16" xml:space="preserve">
<g>
	<rect y="-0.001" width="16.002" height="16.002"/>
	<path fill="#FFFFFF" d="M7.905,9.587c0,0.437-0.111,0.83-0.332,1.182c-0.222,0.351-0.544,0.629-0.967,0.833
		s-0.925,0.306-1.509,0.306c-0.894,0-1.631-0.213-2.212-0.64c-0.581-0.425-0.896-1.051-0.945-1.874h2.492
		c0.036,0.438,0.225,0.655,0.57,0.655c0.12,0,0.216-0.031,0.29-0.097c0.074-0.064,0.111-0.157,0.111-0.279
		c0-0.18-0.09-0.32-0.269-0.425c-0.18-0.104-0.47-0.224-0.871-0.359C3.791,8.73,3.398,8.57,3.085,8.405
		C2.772,8.24,2.5,7.997,2.267,7.675C2.035,7.352,1.918,6.933,1.918,6.417c0-0.494,0.125-0.915,0.375-1.262
		c0.25-0.348,0.591-0.611,1.024-0.79s0.92-0.269,1.462-0.269c0.894,0,1.604,0.211,2.133,0.634C7.44,5.152,7.729,5.762,7.778,6.558
		H5.255C5.22,6.155,5.058,5.955,4.769,5.955c-0.099,0-0.179,0.03-0.243,0.092S4.431,6.199,4.431,6.321
		c0,0.164,0.09,0.299,0.269,0.402c0.18,0.104,0.459,0.225,0.84,0.36c0.479,0.172,0.874,0.342,1.188,0.51
		C7.041,7.762,7.316,8.01,7.55,8.335C7.787,8.661,7.905,9.078,7.905,9.587z"/>
	<path fill="#FFFFFF" d="M12.688,7.883c0.452,0.11,0.804,0.336,1.055,0.676s0.377,0.733,0.377,1.18c0,0.681-0.217,1.205-0.653,1.575
		c-0.434,0.369-1.058,0.554-1.87,0.554H7.661V4.097h3.829c0.763,0,1.364,0.172,1.803,0.516s0.657,0.846,0.657,1.504
		c0,0.453-0.114,0.836-0.344,1.146C13.375,7.574,13.069,7.781,12.688,7.883z M10.015,7.126h0.912c0.212,0,0.369-0.045,0.472-0.132
		c0.103-0.088,0.154-0.223,0.154-0.406c0-0.19-0.052-0.331-0.154-0.422c-0.103-0.092-0.26-0.138-0.472-0.138h-0.912V7.126z
		 M11.086,9.914c0.212,0,0.369-0.042,0.473-0.127c0.102-0.084,0.153-0.221,0.153-0.411c0-0.373-0.209-0.56-0.626-0.56h-1.071v1.098
		H11.086L11.086,9.914z"/>
</g>
</svg>
